<?xml version="1.0" encoding="utf-8"?>
<!-- Generator: Adobe Illustrator 19.2.1, SVG Export Plug-In . SVG Version: 6.00 Build 0)  -->
<svg version="1.1" id="Layer_1" xmlns="http://www.w3.org/2000/svg" xmlns:xlink="http://www.w3.org/1999/xlink" x="0px" y="0px"
	 viewBox="0 0 300 161.3077393" style="enable-background:new 0 0 300 161.3077393;" xml:space="preserve">
<style type="text/css">
	.st0{fill:#BE2C2C;}
	.st1{fill:#FFFFFF;}
</style>
<g>
	<g>
		<path class="st1" d="M206.9176636,68.358284v-7.5836678h-5.5111389
			c-0.8903046-28.644146-19.752655-47.3262024-44.8407288-51.8332939C156.1234283,3.9834101,151.9461517,0,146.8752441,0
			c-5.0715942,0-9.2488708,3.9538686-9.6912384,8.9117813c-25.0880814,4.50805-43.9495621,23.218689-44.8398743,51.8628349
			h-3.8869934v7.5148811l6.9849472,3.6514816h38.281456l-4.6878204,7.2824097h-16.286972l-3.1549759,10.875473l3.741539,1.0905685
			l2.3084259-7.5965958h15.6104431l7.0311127-11.6518555h34.39328l16.3180084,18.8726807l8.8476562-9.5579605l-2.8911591-2.5642319
			l-5.9012299,6.217308l-11.164978-12.9677963h19.8302612L206.9176636,68.358284z M136.0673676,67.5715332H96.407196
			l-5.0370941-1.6478348v-2.2361183h47.0410767L136.0673676,67.5715332z M165.8960876,19.1292801
			c13.8437653,7.6773186,23.2619476,21.6033821,25.1930542,37.2520866l-3.8850403,0.4796791
			c-1.778183-14.4114075-10.4530487-27.236784-23.2056274-34.3092308L165.8960876,19.1292801z M140.6291199,67.5715332
			l2.3434753-3.8839531h59.5756226v2.1673317l-5.6910553,1.7166214H140.6291199z"/>
		<rect x="79.7182465" y="20.4786167" class="st1" width="10.1953735" height="4.3694458"/>
		<rect x="62.725956" y="32.1304703" class="st1" width="27.187664" height="4.3694458"/>
		<rect x="52.5305824" y="43.296833" class="st1" width="37.3830376" height="4.3694458"/>
	</g>
	<g>
		<path class="st1" d="M0,160.786377v-39.8105011h27.187664v6.7969131H8.2533979v9.2243881h16.506794v6.7969055H8.2533979
			v16.9922943H0z"/>
		<path class="st1" d="M65.0664215,125.7844391c-3.5027847-3.619957-8.1808319-5.4298401-14.0158806-5.4298401
			c-3.2236938,0-6.0691185,0.5222855-8.5363655,1.5667725c-1.8549995,0.7744446-3.5613213,1.9630432-5.1191521,3.5658951
			c-1.5577354,1.6027603-2.7868843,3.4127274-3.6874428,5.4298325c-1.206501,2.7373962-1.809885,6.1230927-1.809885,10.1572113
			c0,6.3031921,2.3921528,11.2512817,5.8679028,14.8441162c2.9753952,3.0756378,7.8708382,4.8238525,12.240284,5.2667542v-6.1990814
			c-4.3694458-1.1305084-6.796917-4.625061-6.796917-8.7655182v-17.3696289c0-0.9550705,0.986908-1.7292404,1.9419746-1.7292404
			c0.9550705,0,1.9419785,0.7741699,1.9419785,1.7292404v16.8570099c0,0.9271393,0.6086464,1.8251038,1.5326538,1.8966217
			c0.9005585-0.0715179,1.3803101-0.9694824,1.3803101-1.8966217v-16.2805634c0-1.273468,0.9112663-2.305687,2.1847229-2.305687
			c1.2734528,0,2.1847229,1.0322189,2.1847229,2.305687v16.2805634c0,0.9706421,0.2398643,2.1654205,1.2105064,2.1654205
			c1.08638,0,1.7024574-0.8889313,1.7024574-1.975296v-17.0471344c0-0.9550705,1.2296524-1.7292404,2.1847229-1.7292404
			c0.9550667,0,2.1847229,0.7741699,2.1847229,1.7292404v17.3696289c0,4.1405487-2.9129639,7.6350861-7.2824097,8.7655945v6.2467957
			c5.8259277-0.3544464,8.3000832-2.1290741,11.3923798-5.3415833c3.4758377-3.6108246,4.8786926-8.6128845,4.8786926-15.0062103
			C70.6464005,134.4378815,68.5692062,129.4042969,65.0664215,125.7844391z"/>
		<path class="st1" d="M108.0904388,125.7844391c-3.5027847-3.619957-8.1716995-5.4298401-14.006752-5.4298401
			c-3.2236023,0-6.0690308,0.5222855-8.5363617,1.5667725c-1.8550034,0.7744446-3.5613251,1.9630432-5.1191559,3.5658951
			c-1.5577316,1.6027603-2.7868805,3.4127274-3.6873474,5.4298325c-1.2066803,2.7373962-1.8099823,6.1230927-1.8099823,10.1572113
			c0,6.3031921,2.8488007,11.2512817,6.3245544,14.8441162c2.8182983,2.9130859,7.590004,4.6241608,11.9594498,5.1752777v-4.1174469
			c0-1.0471802-1.4336472-2.0570221-2.3430634-2.5761871c-3.739357-2.1353455-7.217247-7.1842346-7.217247-13.0879364
			c0-7.837204,4.7092514-14.1904221,10.7963638-14.1904221c6.0871048,0,10.7671967,6.3532181,10.7671967,14.1904221
			c0,5.9037018-2.2841873,10.9526825-6.0392151,13.0879364c-0.9105759,0.5178223-0.6235962,1.5272217-0.6235962,2.5747528v4.2359619
			c4.3694458-0.4111328,7.6251297-2.1817169,10.645546-5.319397c3.4757538-3.6108246,4.5065842-8.6128845,4.5065842-15.0062103
			C113.7074127,134.4378815,111.5932236,129.4042969,108.0904388,125.7844391z"/>
		<path class="st1" d="M119.9170151,120.9758759h14.5124741c3.2957001,0,5.8079987,0.2791901,7.5368805,0.7834473
			c2.3231964,0.6843491,4.3132172,1.9135132,5.9700775,3.660408c1.6568604,1.7469025,2.9174957,3.8922653,3.7819519,6.4225693
			c0.8644409,2.530304,1.2966614,5.6537933,1.2966614,9.3637085c0,3.2596741-0.4052124,6.070816-1.2156219,8.4300232
			c-0.990509,2.881485-2.4042358,5.2145386-4.2411804,6.9974518c-1.3867188,1.3506927-3.2596893,2.4816589-5.6188965,3.2380524
			c-1.7649078,0.5582886-4.1241302,0.9148407-7.077652,0.9148407h-14.9446945V120.9758759z M127.6849213,127.772789v26.2166672
			h6.0962372c2.2331543,0,3.844986-0.1408081,4.835495-0.3929443c1.2966614-0.324173,2.3727112-0.8808289,3.2281494-1.6552277
			c0.8554535-0.7743988,1.5533142-2.0522461,2.0935822-3.8261566c0.5402832-1.7739105,0.8104248-4.1934967,0.8104248-7.2550812
			c0-3.0615692-0.2701416-5.4127045-0.8104248-7.0515442c-0.5402679-1.638855-1.2966614-2.9179688-2.269165-3.836441
			s-2.206131-1.5183563-3.7009125-1.842514c-1.1165619-0.2521362-3.3047028-0.3567581-6.5643768-0.3567581H127.6849213z"/>
		<path class="st1" d="M158.1747131,141.0743103c0-4.0340729,0.6033173-7.4198151,1.8099365-10.1572266
			c0.9004669-2.0170288,2.1295929-3.8269653,3.6873932-5.4297943c1.5578156-1.6028214,3.2641907-2.7914352,5.1191406-3.565834
			c2.4672699-1.0445404,5.3127441-1.5668106,8.5363922-1.5668106c5.8350067,0,10.5039215,1.8099365,14.0067139,5.4298019
			c3.5005646,3.6198654,5.2564545,8.65345,5.2564545,15.1007767c0,6.3932953-1.7378845,11.3953705-5.2159271,15.0062256
			c-3.4757843,3.6108551-8.1221771,5.4162903-13.9391785,5.4162903c-5.8890381,0-10.5714417-1.7964325-14.0472412-5.3892822
			C159.9126129,152.3256073,158.1747131,147.3775635,158.1747131,141.0743103z M166.4139557,140.804184
			c0,4.4842987,1.0355377,7.8835602,3.1066132,10.1977386c2.0710602,2.3141937,4.7004089,3.4712982,7.8880615,3.4712982
			c3.1876373,0,5.8034821-1.1481018,7.8475342-3.4442749c2.0440521-2.2961884,3.0660858-5.7404633,3.0660858-10.3328247
			c0-4.5383301-0.9950256-7.9240723-2.9850464-10.1572266s-4.6328888-3.3497238-7.9285736-3.3497238
			c-3.2957001,0-5.9520721,1.1300735-7.9691162,3.3902359C167.4224854,132.8395844,166.4139557,136.2478333,166.4139557,140.804184z
			"/>
		<path class="st1" d="M202.9364929,160.786377v-39.8105011h11.7535706l7.1857147,27.0139008l7.1046448-27.0139008h11.8246002
			v39.8105011h-7.2824097v-31.3280487l-7.8378754,31.3280487h-7.6989746l-7.766861-31.3280487v31.3280487H202.9364929z"/>
		<path class="st1" d="M248.5729218,160.786377v-39.8105011h8.2534027v39.8105011H248.5729218z"/>
		<path class="st1" d="M300,160.786377h-8.6984863l-3.4577637-9.2243805h-15.8301697l-3.2686768,9.2243805h-8.4823608
			l15.4249268-39.8105011h8.4553528L300,160.786377z M285.2774048,144.7650757l-5.4567871-14.6955719l-5.3487549,14.6955719
			H285.2774048z"/>
	</g>
</g>
</svg>
