<?xml version="1.0" encoding="UTF-8" standalone="no"?>
<svg width="135px" height="40px" viewBox="0 0 135 40" version="1.1" xmlns="http://www.w3.org/2000/svg" xmlns:xlink="http://www.w3.org/1999/xlink">
    <!-- Generator: Sketch 41.1 (35376) - http://www.bohemiancoding.com/sketch -->
    <title>ios-appstore-download</title>
    <desc>Created with Sketch.</desc>
    <defs>
        <polygon id="path-1" points="0.06 40 135 40 135 0.04 0.06 0.04"></polygon>
    </defs>
    <g id="Page-1" stroke="none" stroke-width="1" fill="none" fill-rule="evenodd">
        <g id="skip-landing-copy-19" transform="translate(-364.000000, -1345.000000)">
            <g id="ios-appstore-download" transform="translate(364.000000, 1345.000000)">
                <g id="Group-3">
                    <mask id="mask-2" fill="white">
                        <use xlink:href="#path-1"></use>
                    </mask>
                    <g id="Clip-2"></g>
                    <path d="M130.197,0 L4.729,0 C2.122,0 0,2.12 0,4.726 L0,35.267 C0,37.872 2.122,40 4.729,40 L130.197,40 C132.803,40 135,37.872 135,35.267 L135,4.726 C135,2.12 132.803,0 130.197,0" id="Fill-1" fill="#000000" mask="url(#mask-2)"></path>
                </g>
                <path d="M30.128,19.784 C30.099,16.561 32.767,14.993 32.889,14.919 C31.378,12.716 29.036,12.415 28.213,12.392 C26.246,12.185 24.338,13.569 23.336,13.569 C22.314,13.569 20.77,12.412 19.108,12.446 C16.969,12.479 14.966,13.718 13.868,15.642 C11.602,19.565 13.292,25.33 15.463,28.501 C16.549,30.054 17.818,31.788 19.478,31.727 C21.103,31.659 21.71,30.69 23.672,30.69 C25.615,30.69 26.185,31.727 27.879,31.688 C29.623,31.659 30.721,30.128 31.769,28.561 C33.024,26.78 33.528,25.027 33.548,24.937 C33.507,24.924 30.161,23.647 30.128,19.784" id="Fill-4" fill="#FFFFFF"></path>
                <path d="M28.233,6.217 C26.968,6.273 25.386,7.091 24.476,8.161 C23.67,9.103 22.95,10.647 23.136,12.099 C24.557,12.205 26.016,11.382 26.928,10.306 C27.801,9.213 28.399,7.726 28.233,6.217 Z" id="Fill-5" fill="#FFFFFF"></path>
                <path d="M49.755,25.955 L48.63,22.481 C48.511,22.125 48.288,21.289 47.958,19.973 L47.919,19.973 C47.788,20.54 47.577,21.375 47.287,22.481 L46.182,25.955 L49.755,25.955 Z M53.645,31.504 L51.374,31.504 L50.13,27.595 L45.807,27.595 L44.622,31.504 L42.411,31.504 L46.695,18.196 L49.341,18.196 L53.645,31.504 L53.645,31.504 Z" id="Fill-6" fill="#FFFFFF"></path>
                <path d="M62.49,26.666 C62.49,25.732 62.28,24.962 61.858,24.356 C61.397,23.725 60.779,23.408 60.002,23.408 C59.476,23.408 58.998,23.584 58.571,23.932 C58.143,24.281 57.863,24.738 57.732,25.305 C57.666,25.568 57.633,25.785 57.633,25.955 L57.633,27.555 C57.633,28.253 57.847,28.842 58.275,29.322 C58.703,29.803 59.259,30.043 59.943,30.043 C60.746,30.043 61.372,29.733 61.819,29.115 C62.266,28.496 62.49,27.68 62.49,26.666 Z M64.662,26.588 C64.662,28.22 64.221,29.51 63.339,30.457 C62.549,31.3 61.569,31.721 60.397,31.721 C59.134,31.721 58.226,31.267 57.673,30.358 L57.633,30.358 L57.633,35.413 L55.501,35.413 L55.501,25.067 C55.501,24.041 55.474,22.988 55.422,21.908 L57.297,21.908 L57.416,23.429 L57.456,23.429 C58.166,22.283 59.246,21.711 60.693,21.711 C61.826,21.711 62.77,22.158 63.527,23.053 C64.284,23.949 64.662,25.127 64.662,26.588 L64.662,26.588 Z" id="Fill-7" fill="#FFFFFF"></path>
                <path d="M73.527,26.666 C73.527,25.732 73.316,24.962 72.895,24.356 C72.434,23.725 71.816,23.408 71.039,23.408 C70.512,23.408 70.035,23.584 69.607,23.932 C69.18,24.281 68.901,24.738 68.769,25.305 C68.704,25.568 68.67,25.785 68.67,25.955 L68.67,27.555 C68.67,28.253 68.884,28.842 69.31,29.322 C69.738,29.803 70.295,30.043 70.98,30.043 C71.783,30.043 72.408,29.733 72.855,29.115 C73.303,28.496 73.527,27.68 73.527,26.666 Z M75.699,26.588 C75.699,28.22 75.258,29.51 74.375,30.457 C73.586,31.3 72.605,31.721 71.434,31.721 C70.17,31.721 69.262,31.267 68.71,30.358 L68.67,30.358 L68.67,35.413 L66.538,35.413 L66.538,25.067 C66.538,24.041 66.511,22.988 66.459,21.908 L68.335,21.908 L68.453,23.429 L68.493,23.429 C69.203,22.283 70.281,21.711 71.73,21.711 C72.861,21.711 73.807,22.158 74.564,23.053 C75.32,23.949 75.699,25.127 75.699,26.588 L75.699,26.588 Z" id="Fill-8" fill="#FFFFFF"></path>
                <path d="M88.039,27.773 C88.039,28.904 87.646,29.825 86.857,30.536 C85.99,31.314 84.783,31.701 83.232,31.701 C81.801,31.701 80.652,31.425 79.783,30.872 L80.277,29.095 C81.213,29.661 82.24,29.944 83.359,29.944 C84.162,29.944 84.787,29.763 85.236,29.4 C85.684,29.038 85.906,28.553 85.906,27.946 C85.906,27.406 85.723,26.951 85.353,26.582 C84.986,26.213 84.373,25.87 83.518,25.553 C81.188,24.684 80.023,23.411 80.023,21.736 C80.023,20.643 80.432,19.746 81.248,19.047 C82.062,18.348 83.148,17.999 84.506,17.999 C85.717,17.999 86.723,18.209 87.525,18.63 L86.992,20.368 C86.242,19.96 85.394,19.756 84.445,19.756 C83.695,19.756 83.109,19.94 82.689,20.309 C82.334,20.638 82.156,21.039 82.156,21.514 C82.156,22.04 82.359,22.475 82.768,22.816 C83.123,23.133 83.768,23.475 84.703,23.844 C85.848,24.305 86.689,24.844 87.23,25.462 C87.77,26.081 88.039,26.852 88.039,27.773" id="Fill-9" fill="#FFFFFF"></path>
                <path d="M95.088,23.508 L92.738,23.508 L92.738,28.167 C92.738,29.352 93.152,29.944 93.982,29.944 C94.363,29.944 94.68,29.911 94.93,29.846 L94.988,31.465 C94.568,31.622 94.016,31.701 93.33,31.701 C92.488,31.701 91.83,31.444 91.355,30.932 C90.883,30.418 90.644,29.556 90.644,28.345 L90.644,23.508 L89.244,23.508 L89.244,21.908 L90.644,21.908 L90.644,20.151 L92.738,19.519 L92.738,21.908 L95.088,21.908 L95.088,23.508" id="Fill-10" fill="#FFFFFF"></path>
                <path d="M103.478,26.696 C103.478,25.812 103.289,25.053 102.906,24.419 C102.459,23.653 101.82,23.271 100.992,23.271 C100.135,23.271 99.484,23.653 99.037,24.419 C98.654,25.053 98.465,25.824 98.465,26.736 C98.465,27.621 98.654,28.38 99.037,29.013 C99.498,29.778 100.143,30.161 100.973,30.161 C101.787,30.161 102.426,29.772 102.887,28.993 C103.281,28.347 103.478,27.58 103.478,26.696 Z M105.691,26.627 C105.691,28.102 105.269,29.313 104.428,30.26 C103.545,31.234 102.373,31.721 100.912,31.721 C99.504,31.721 98.383,31.254 97.547,30.319 C96.711,29.385 96.293,28.206 96.293,26.785 C96.293,25.298 96.723,24.08 97.586,23.133 C98.447,22.185 99.609,21.711 101.07,21.711 C102.478,21.711 103.611,22.178 104.467,23.113 C105.283,24.021 105.691,25.192 105.691,26.627 L105.691,26.627 Z" id="Fill-11" fill="#FFFFFF"></path>
                <path d="M112.621,23.783 C112.41,23.744 112.185,23.725 111.949,23.725 C111.199,23.725 110.619,24.008 110.211,24.574 C109.855,25.074 109.678,25.706 109.678,26.469 L109.678,31.504 L107.547,31.504 L107.566,24.93 C107.566,23.823 107.539,22.816 107.486,21.908 L109.344,21.908 L109.422,23.744 L109.48,23.744 C109.705,23.113 110.06,22.605 110.547,22.225 C111.021,21.882 111.535,21.711 112.088,21.711 C112.285,21.711 112.463,21.725 112.621,21.75 L112.621,23.783" id="Fill-12" fill="#FFFFFF"></path>
                <path d="M120.123,25.699 C120.137,25.067 119.998,24.522 119.709,24.06 C119.34,23.468 118.773,23.172 118.01,23.172 C117.312,23.172 116.746,23.461 116.312,24.041 C115.957,24.502 115.746,25.055 115.682,25.699 L120.123,25.699 Z M122.156,26.252 C122.156,26.634 122.131,26.956 122.078,27.219 L115.682,27.219 C115.707,28.167 116.016,28.892 116.609,29.392 C117.148,29.839 117.846,30.063 118.701,30.063 C119.648,30.063 120.512,29.911 121.289,29.608 L121.623,31.089 C120.715,31.484 119.643,31.682 118.406,31.682 C116.918,31.682 115.75,31.244 114.9,30.368 C114.053,29.493 113.627,28.318 113.627,26.844 C113.627,25.396 114.021,24.191 114.812,23.231 C115.641,22.204 116.76,21.691 118.168,21.691 C119.551,21.691 120.598,22.204 121.309,23.231 C121.873,24.047 122.156,25.055 122.156,26.252 L122.156,26.252 Z" id="Fill-13" fill="#FFFFFF"></path>
                <path d="M47.945,10.038 C47.945,9.275 47.743,8.69 47.338,8.282 C46.934,7.875 46.344,7.671 45.568,7.671 C45.238,7.671 44.956,7.694 44.724,7.739 L44.724,12.628 C44.853,12.648 45.089,12.657 45.432,12.657 C46.234,12.657 46.853,12.434 47.29,11.988 C47.726,11.542 47.945,10.892 47.945,10.038 Z M49.05,10.009 C49.05,11.186 48.698,12.072 47.993,12.667 C47.339,13.216 46.412,13.491 45.209,13.491 C44.614,13.491 44.103,13.465 43.676,13.414 L43.676,6.982 C44.233,6.892 44.833,6.847 45.481,6.847 C46.625,6.847 47.489,7.096 48.071,7.594 C48.723,8.156 49.05,8.961 49.05,10.009 L49.05,10.009 Z" id="Fill-14" fill="#FFFFFF"></path>
                <path d="M53.822,11.071 C53.822,10.637 53.728,10.264 53.54,9.953 C53.321,9.576 53.007,9.388 52.6,9.388 C52.179,9.388 51.859,9.576 51.639,9.953 C51.452,10.264 51.358,10.643 51.358,11.09 C51.358,11.525 51.452,11.898 51.639,12.21 C51.866,12.585 52.182,12.773 52.59,12.773 C52.991,12.773 53.304,12.582 53.531,12.2 C53.725,11.882 53.822,11.506 53.822,11.071 Z M54.909,11.037 C54.909,11.762 54.702,12.356 54.288,12.822 C53.854,13.301 53.279,13.54 52.561,13.54 C51.869,13.54 51.318,13.311 50.907,12.851 C50.497,12.392 50.291,11.813 50.291,11.115 C50.291,10.384 50.502,9.786 50.926,9.32 C51.35,8.854 51.92,8.622 52.638,8.622 C53.331,8.622 53.886,8.852 54.307,9.311 C54.707,9.757 54.909,10.333 54.909,11.037 L54.909,11.037 Z" id="Fill-15" fill="#FFFFFF"></path>
                <path d="M62.765,8.719 L61.29,13.433 L60.331,13.433 L59.719,11.386 C59.564,10.875 59.438,10.368 59.34,9.863 L59.322,9.863 C59.231,10.381 59.105,10.889 58.943,11.386 L58.293,13.433 L57.323,13.433 L55.936,8.719 L57.013,8.719 L57.546,10.959 C57.675,11.49 57.782,11.994 57.867,12.473 L57.885,12.473 C57.963,12.079 58.092,11.577 58.274,10.969 L58.943,8.719 L59.796,8.719 L60.437,10.921 C60.592,11.458 60.718,11.975 60.815,12.473 L60.844,12.473 C60.915,11.988 61.022,11.471 61.165,10.921 L61.737,8.719 L62.765,8.719" id="Fill-16" fill="#FFFFFF"></path>
                <path d="M68.198,13.433 L67.15,13.433 L67.15,10.733 C67.15,9.901 66.834,9.485 66.2,9.485 C65.889,9.485 65.637,9.6 65.443,9.829 C65.249,10.058 65.152,10.327 65.152,10.637 L65.152,13.433 L64.104,13.433 L64.104,10.067 C64.104,9.653 64.091,9.204 64.066,8.719 L64.987,8.719 L65.036,9.456 L65.065,9.456 C65.187,9.227 65.369,9.037 65.608,8.887 C65.892,8.71 66.21,8.622 66.558,8.622 C66.998,8.622 67.364,8.764 67.655,9.049 C68.017,9.398 68.198,9.918 68.198,10.61 L68.198,13.433" id="Fill-17" fill="#FFFFFF"></path>
                <polygon id="Fill-18" fill="#FFFFFF" points="70.041 13.433 71.088 13.433 71.088 6.556 70.041 6.556"></polygon>
                <path d="M76.17,11.071 C76.17,10.637 76.076,10.264 75.889,9.953 C75.67,9.576 75.355,9.388 74.949,9.388 C74.527,9.388 74.207,9.576 73.988,9.953 C73.801,10.264 73.707,10.643 73.707,11.09 C73.707,11.525 73.801,11.898 73.988,12.21 C74.215,12.585 74.531,12.773 74.939,12.773 C75.34,12.773 75.652,12.582 75.879,12.2 C76.074,11.882 76.17,11.506 76.17,11.071 Z M77.258,11.037 C77.258,11.762 77.051,12.356 76.637,12.822 C76.203,13.301 75.627,13.54 74.91,13.54 C74.217,13.54 73.666,13.311 73.256,12.851 C72.846,12.392 72.641,11.813 72.641,11.115 C72.641,10.384 72.852,9.786 73.275,9.32 C73.699,8.854 74.27,8.622 74.986,8.622 C75.68,8.622 76.234,8.852 76.656,9.311 C77.057,9.757 77.258,10.333 77.258,11.037 L77.258,11.037 Z" id="Fill-19" fill="#FFFFFF"></path>
                <path d="M81.242,11.813 L81.242,11.086 C80.086,11.066 79.508,11.383 79.508,12.036 C79.508,12.282 79.574,12.466 79.709,12.589 C79.844,12.712 80.016,12.773 80.221,12.773 C80.451,12.773 80.666,12.701 80.861,12.555 C81.059,12.41 81.18,12.224 81.225,11.998 C81.236,11.946 81.242,11.884 81.242,11.813 Z M82.33,13.433 L81.389,13.433 L81.31,12.89 L81.281,12.89 C80.959,13.323 80.5,13.54 79.904,13.54 C79.459,13.54 79.1,13.398 78.828,13.113 C78.582,12.854 78.459,12.534 78.459,12.153 C78.459,11.577 78.699,11.138 79.182,10.833 C79.664,10.53 80.342,10.381 81.215,10.387 L81.215,10.3 C81.215,9.679 80.889,9.369 80.236,9.369 C79.771,9.369 79.361,9.485 79.008,9.718 L78.795,9.029 C79.232,8.758 79.773,8.622 80.412,8.622 C81.644,8.622 82.262,9.272 82.262,10.572 L82.262,12.308 C82.262,12.78 82.285,13.155 82.33,13.433 L82.33,13.433 Z" id="Fill-20" fill="#FFFFFF"></path>
                <path d="M87.199,11.445 L87.199,10.659 C87.199,10.523 87.189,10.413 87.17,10.329 C87.111,10.077 86.984,9.865 86.791,9.694 C86.596,9.522 86.361,9.437 86.09,9.437 C85.699,9.437 85.393,9.592 85.168,9.902 C84.945,10.213 84.832,10.61 84.832,11.095 C84.832,11.561 84.939,11.939 85.154,12.23 C85.381,12.54 85.687,12.696 86.07,12.696 C86.414,12.696 86.689,12.566 86.898,12.308 C87.1,12.069 87.199,11.781 87.199,11.445 Z M88.285,13.433 L87.355,13.433 L87.307,12.676 L87.277,12.676 C86.98,13.252 86.475,13.54 85.764,13.54 C85.195,13.54 84.723,13.317 84.348,12.871 C83.973,12.424 83.785,11.846 83.785,11.134 C83.785,10.371 83.988,9.753 84.396,9.282 C84.791,8.842 85.275,8.622 85.852,8.622 C86.484,8.622 86.928,8.835 87.18,9.262 L87.199,9.262 L87.199,6.556 L88.248,6.556 L88.248,12.163 C88.248,12.622 88.26,13.045 88.285,13.433 L88.285,13.433 Z" id="Fill-21" fill="#FFFFFF"></path>
                <path d="M96.162,11.071 C96.162,10.637 96.068,10.264 95.881,9.953 C95.66,9.576 95.348,9.388 94.939,9.388 C94.52,9.388 94.199,9.576 93.978,9.953 C93.791,10.264 93.697,10.643 93.697,11.09 C93.697,11.525 93.791,11.898 93.978,12.21 C94.205,12.585 94.521,12.773 94.93,12.773 C95.33,12.773 95.645,12.582 95.871,12.2 C96.064,11.882 96.162,11.506 96.162,11.071 Z M97.248,11.037 C97.248,11.762 97.041,12.356 96.627,12.822 C96.193,13.301 95.619,13.54 94.9,13.54 C94.209,13.54 93.658,13.311 93.246,12.851 C92.836,12.392 92.631,11.813 92.631,11.115 C92.631,10.384 92.842,9.786 93.266,9.32 C93.689,8.854 94.26,8.622 94.979,8.622 C95.67,8.622 96.227,8.852 96.646,9.311 C97.047,9.757 97.248,10.333 97.248,11.037 L97.248,11.037 Z" id="Fill-22" fill="#FFFFFF"></path>
                <path d="M102.883,13.433 L101.836,13.433 L101.836,10.733 C101.836,9.901 101.519,9.485 100.885,9.485 C100.574,9.485 100.322,9.6 100.129,9.829 C99.936,10.058 99.838,10.327 99.838,10.637 L99.838,13.433 L98.789,13.433 L98.789,10.067 C98.789,9.653 98.777,9.204 98.752,8.719 L99.672,8.719 L99.721,9.456 L99.75,9.456 C99.873,9.227 100.055,9.037 100.293,8.887 C100.578,8.71 100.894,8.622 101.244,8.622 C101.684,8.622 102.049,8.764 102.34,9.049 C102.703,9.398 102.883,9.918 102.883,10.61 L102.883,13.433" id="Fill-23" fill="#FFFFFF"></path>
                <path d="M109.935,9.504 L108.781,9.504 L108.781,11.794 C108.781,12.376 108.986,12.667 109.393,12.667 C109.58,12.667 109.736,12.651 109.859,12.618 L109.887,13.414 C109.68,13.491 109.408,13.53 109.072,13.53 C108.658,13.53 108.336,13.404 108.103,13.152 C107.869,12.899 107.754,12.476 107.754,11.881 L107.754,9.504 L107.064,9.504 L107.064,8.719 L107.754,8.719 L107.754,7.855 L108.781,7.545 L108.781,8.719 L109.935,8.719 L109.935,9.504" id="Fill-24" fill="#FFFFFF"></path>
                <path d="M115.484,13.433 L114.435,13.433 L114.435,10.753 C114.435,9.908 114.119,9.485 113.486,9.485 C113,9.485 112.668,9.73 112.486,10.221 C112.455,10.324 112.437,10.45 112.437,10.598 L112.437,13.433 L111.391,13.433 L111.391,6.556 L112.437,6.556 L112.437,9.397 L112.457,9.397 C112.787,8.88 113.26,8.622 113.873,8.622 C114.307,8.622 114.666,8.764 114.951,9.049 C115.307,9.404 115.484,9.932 115.484,10.63 L115.484,13.433" id="Fill-25" fill="#FFFFFF"></path>
                <path d="M120.207,10.581 C120.215,10.271 120.146,10.002 120.004,9.776 C119.822,9.485 119.545,9.34 119.17,9.34 C118.828,9.34 118.549,9.482 118.336,9.767 C118.162,9.993 118.059,10.265 118.025,10.581 L120.207,10.581 Z M121.207,10.853 C121.207,11.041 121.193,11.199 121.168,11.328 L118.025,11.328 C118.039,11.794 118.189,12.149 118.48,12.395 C118.746,12.615 119.09,12.725 119.51,12.725 C119.975,12.725 120.398,12.651 120.781,12.502 L120.945,13.229 C120.498,13.423 119.973,13.521 119.363,13.521 C118.633,13.521 118.059,13.306 117.643,12.875 C117.225,12.445 117.018,11.868 117.018,11.144 C117.018,10.433 117.211,9.841 117.6,9.369 C118.006,8.864 118.555,8.612 119.248,8.612 C119.926,8.612 120.441,8.864 120.789,9.369 C121.068,9.77 121.207,10.265 121.207,10.853 L121.207,10.853 Z" id="Fill-26" fill="#FFFFFF"></path>
            </g>
        </g>
    </g>
</svg>