<?xml version="1.0" encoding="UTF-8" standalone="no"?>
<svg width="135px" height="40px" viewBox="0 0 135 40" version="1.1" xmlns="http://www.w3.org/2000/svg" xmlns:xlink="http://www.w3.org/1999/xlink">
    <!-- Generator: Sketch 41.1 (35376) - http://www.bohemiancoding.com/sketch -->
    <title>google-play-download</title>
    <desc>Created with Sketch.</desc>
    <defs>
        <linearGradient x1="29.6645024%" y1="-6.02719397%" x2="55.1991349%" y2="92.8331576%" id="linearGradient-1">
            <stop stop-color="#006884" offset="0%"></stop>
            <stop stop-color="#8AD1D0" offset="100%"></stop>
        </linearGradient>
        <linearGradient x1="-7.69784173%" y1="15.8795153%" x2="91.7266187%" y2="86.484012%" id="linearGradient-2">
            <stop stop-color="#24BBB6" offset="0%"></stop>
            <stop stop-color="#DBE692" offset="100%"></stop>
        </linearGradient>
        <linearGradient x1="49.9094509%" y1="105.182927%" x2="49.9094509%" y2="-4.57317073%" id="linearGradient-3">
            <stop stop-color="#FCC072" offset="0%"></stop>
            <stop stop-color="#F58A5B" offset="100%"></stop>
        </linearGradient>
        <linearGradient x1="10.9329446%" y1="117.556549%" x2="90.451895%" y2="11.5457325%" id="linearGradient-4">
            <stop stop-color="#712B8F" offset="0%"></stop>
            <stop stop-color="#EA1D27" offset="100%"></stop>
        </linearGradient>
    </defs>
    <g id="Page-1" stroke="none" stroke-width="1" fill="none" fill-rule="evenodd">
        <g id="skip-landing-copy-19" transform="translate(-204.000000, -1345.000000)">
            <g id="google-play-download" transform="translate(204.000000, 1345.000000)">
                <path d="M130.2,0 L4.73,0 C2.11769313,-1.59957662e-16 3.19915324e-16,2.11769313 0,4.73 L0,35.27 C0.00550059797,37.880025 2.11997495,39.9944994 4.73,40 L130.2,40 C132.823869,40.000279 134.961735,37.89359 135,35.27 L135,4.73 C134.961735,2.10641004 132.823869,-0.000279028466 130.2,0 Z" id="Shape" fill="#000000"></path>
                <path d="M72.73,33.33 C72.2204335,32.8378907 71.7978023,32.2631123 71.48,31.63 L73.29,30.86 C73.4348088,31.1664806 73.6197662,31.4523238 73.84,31.71 C74.3042727,32.242472 74.9735963,32.5516704 75.68,32.56 C76.4205476,32.566724 77.1237406,32.2353765 77.59,31.66 C77.9573998,31.10019 78.139325,30.4389618 78.11,29.77 L78.11,29.07 C76.82,30.73 73.99,30.5 72.41,28.78 C70.7163449,26.8830256 70.7163449,24.0169744 72.41,22.12 C74.1,20.45 76.6,20.24 78.07,21.82 L78.07,21.82 L78.07,21 L80.07,21 L80.07,29.53 C80.2499873,30.7888597 79.8595215,32.0624369 79.0048796,33.0040899 C78.1502377,33.9457429 76.9203621,34.4574738 75.65,34.4 C74.5684078,34.4157472 73.5199193,34.0270219 72.71,33.31 L72.71,33.31 L72.73,33.33 Z M119.73,33.8 L119.73,33.8 L121.62,29.31 L118.27,21.53 L120.18,21.53 L122.57,27.07 L124.91,21.53 L126.82,21.53 L121.66,33.8 L119.75,33.8 L119.73,33.8 Z M110.66,29.52 L110.66,29.52 C110.121566,28.961374 109.820497,28.2158696 109.82,27.44 C109.805169,26.7638042 110.052413,26.1080708 110.51,25.61 C111.349683,24.8023162 112.486529,24.378714 113.65,24.44 C114.344926,24.4208685 115.033261,24.5791855 115.65,24.9 C115.669238,24.3726327 115.461117,23.8623897 115.078522,23.4989242 C114.695927,23.1354586 114.175688,22.9537607 113.65,23 C112.836105,22.9679666 112.090574,23.4529624 111.79,24.21 L110.08,23.52 C110.644154,22.0803391 112.077427,21.1734095 113.62,21.28 C114.711861,21.2082394 115.778559,21.6287656 116.527711,22.4263128 C117.276863,23.22386 117.62988,24.3147607 117.49,25.4 L117.49,30.1 L115.62,30.1 L115.62,29.26 C115.345354,29.5953305 115.005053,29.8709739 114.62,30.07 C114.12735,30.293253 113.590727,30.4026285 113.05,30.39 C112.166216,30.4110949 111.306521,30.1007487 110.64,29.52 L110.64,29.52 L110.66,29.52 Z M50.83,25.47 L50.83,25.47 C50.8575442,22.897519 52.9604135,20.8318045 55.5329768,20.8501183 C58.1055401,20.8684322 60.1787865,22.963876 60.1697032,25.5364885 C60.16062,28.109101 58.0726285,30.1898525 55.5,30.19 C54.2527271,30.1900715 53.0572537,29.6911974 52.1800072,28.8045586 C51.3027607,27.9179197 50.8166459,26.7172014 50.83,25.47 L50.83,25.47 Z M60.97,25.47 L60.97,25.47 C60.9975442,22.897519 63.1004135,20.8318045 65.6729768,20.8501183 C68.2455401,20.8684322 70.3187865,22.963876 70.3097032,25.5364885 C70.30062,28.109101 68.2126285,30.1898525 65.64,30.19 C64.3979355,30.1820923 63.2101919,29.6797043 62.3394404,28.7939399 C61.468689,27.9081755 60.9866762,26.7120182 61,25.47 L61,25.47 L60.97,25.47 Z M38.17,27.95 L38.17,27.95 C35.4088924,25.1097148 35.4167548,20.585695 38.1877183,17.7550243 C40.9586817,14.9243535 45.481506,14.8200615 48.38,17.52 L47,19 C46.029204,18.0482256 44.718574,17.5234561 43.3591745,17.5422323 C41.999775,17.5610086 40.7041386,18.1217762 39.76,19.1 C37.7561818,21.1984713 37.7561818,24.5015287 39.76,26.6 C40.7149271,27.6122907 42.0382512,28.1959538 43.429692,28.2185482 C44.8211329,28.2411427 46.1627096,27.7007526 47.15,26.72 C47.7613473,26.0144363 48.1294834,25.1309098 48.2,24.2 L43.4,24.2 L43.4,22.2 L50.06,22.2 C50.144393,22.7054426 50.1812207,23.2176832 50.17,23.73 C50.1534452,25.4130294 49.5077851,27.0289633 48.36,28.26 C47.0670487,29.5467612 45.30351,30.2478401 43.48,30.2 C41.4876307,30.1836607 39.581133,29.3865938 38.17,27.98 L38.17,27.98 L38.17,27.95 Z M85.62,28.79 L85.62,28.79 C83.9530693,26.8715088 83.9530693,24.0184912 85.62,22.1 C86.3979235,21.2276613 87.5111802,20.7288093 88.68,20.7288093 C89.8488198,20.7288093 90.9620765,21.2276613 91.74,22.1 C92.2635053,22.7478058 92.6696287,23.4822123 92.94,24.27 L86.7,26.88 C87.090858,27.7561494 87.9606213,28.3203201 88.92,28.32 C89.8826557,28.3513732 90.7820448,27.841848 91.25,27 L92.88,28.1 L92.88,28.1 C92.69,28.35 92.46,28.59 92.29,28.78 C90.4450412,30.6143965 87.4649588,30.6143965 85.62,28.78 L85.62,28.78 L85.62,28.79 Z M97.33,30.11 L97.33,30.11 L97.33,17.69 L101.33,17.69 C102.389665,17.62716 103.430852,17.988108 104.224246,18.6933478 C105.017641,19.3985877 105.49817,20.3902757 105.56,21.45 C105.546826,22.4605026 105.132726,23.4243741 104.408816,24.1295295 C103.684907,24.8346849 102.7105,25.2233482 101.7,25.21 L99.21,25.21 L99.21,30.11 L97.32,30.11 L97.33,30.11 Z M106.79,30.11 L106.79,30.11 L106.79,17.68 L108.68,17.68 L108.68,30.11 L106.79,30.11 Z M81.42,29.91 L81.42,29.91 L81.42,16 L83.49,16 L83.49,29.9 L81.41,29.9 L81.42,29.91 Z M115.69,26.47 L115.69,26.47 C115.148885,26.1493596 114.528836,25.9865533 113.9,26 C112.55,26 111.79,26.68 111.79,27.43 C111.825062,27.8006516 112.008401,28.1414111 112.298387,28.3749064 C112.588373,28.6084017 112.960401,28.7148207 113.33,28.67 C114.571186,28.6623558 115.596229,27.6983798 115.68,26.46 L115.68,26.46 L115.69,26.47 Z M58.11,25.47 L58.11,25.47 C57.9855996,24.0583883 56.7613615,23.0015226 55.3467101,23.0844949 C53.9320587,23.1674672 52.8397644,24.3602024 52.8812372,25.7766779 C52.9227101,27.1931534 54.0829175,28.3199378 55.5,28.32 C56.224286,28.2888643 56.9064459,27.9709245 57.3960609,27.4362874 C57.8856759,26.9016503 58.1425351,26.1942245 58.11,25.47 L58.11,25.47 L58.11,25.47 Z M68.25,25.47 L68.25,25.47 C68.1255996,24.0583883 66.9013615,23.0015226 65.4867101,23.0844949 C64.0720587,23.1674672 62.9797644,24.3602024 63.0212372,25.7766779 C63.0627101,27.1931534 64.2229175,28.3199378 65.64,28.32 C66.364286,28.2888643 67.0464459,27.9709245 67.5360609,27.4362874 C68.0256759,26.9016503 68.2825351,26.1942245 68.25,25.47 L68.25,25.47 L68.25,25.47 Z M78.16,26.33 L78.16,26.33 C78.1938014,26.2218531 78.2205246,26.1116199 78.24,26 C78.2959468,25.6690142 78.2959468,25.3309858 78.24,25 C78.2423154,24.980067 78.2423154,24.959933 78.24,24.94 C78.2155824,24.797075 78.1787769,24.6565452 78.13,24.52 C77.8273662,23.4373209 76.8538123,22.6787601 75.73,22.65 C74.2521682,22.7568594 73.1341293,24.0308002 73.22,25.51 C73.1519248,26.9905654 74.2900732,28.2492237 75.77,28.33 C76.9247147,28.268595 77.9013744,27.4547119 78.17,26.33 L78.17,26.33 L78.16,26.33 Z M86.38,25.33 L86.38,25.33 L90.54,23.57 C90.1975543,22.9424417 89.5347954,22.5571167 88.82,22.57 C87.3961779,22.6663929 86.3113783,23.8845696 86.38,25.31 L86.38,25.31 L86.38,25.33 Z M103.6,21.52 L103.6,21.52 C103.600994,20.9681058 103.373889,20.440331 102.972444,20.0616093 C102.570999,19.6828875 102.030901,19.4868854 101.48,19.52 L99.21,19.52 L99.21,23.45 L101.59,23.45 C102.686905,23.4611879 103.588118,22.5867435 103.61,21.49 L103.6,21.52 Z" id="Shape" fill="#FFFFFF"></path>
                <path d="M11.5,23 L11.5,13.47 C11.4990458,12.9403227 11.9112761,12.5017798 12.44,12.47 C12.7435603,12.4673219 13.0416927,12.5505216 13.3,12.71 L30.78,22.27 C31.1189317,22.3585385 31.355385,22.6646947 31.355385,23.015 C31.355385,23.3653053 31.1189317,23.6714615 30.78,23.76 L13.3,33.3 C13.0416927,33.4594784 12.7435603,33.5426781 12.44,33.54 C11.9112761,33.5082202 11.4990458,33.0696773 11.5,32.54 L11.5,23 L11.5,23 Z" id="Shape" fill="url(#linearGradient-1)"></path>
                <path d="M22.86,23.06 L12.27,12.48 L12.43,12.48 C12.7335603,12.4773219 13.0316927,12.5605216 13.29,12.72 L26.17,19.72 L22.86,23.06 Z" id="Shape" fill="url(#linearGradient-2)"></path>
                <path d="M26.1,26.3 L22.86,23.06 L26.18,19.74 L30.78,22.26 C31.1189317,22.3485385 31.355385,22.6546947 31.355385,23.005 C31.355385,23.3553053 31.1189317,23.6614615 30.78,23.75 L26.1,26.3 Z" id="Shape" fill="url(#linearGradient-3)"></path>
                <path d="M12.38,33.54 L12.38,33.54 L22.86,23.06 L26.1,26.3 L13.3,33.3 C13.0416927,33.4594784 12.7435603,33.5426781 12.44,33.54 L12.38,33.54 L12.38,33.54 Z" id="Shape" fill="url(#linearGradient-4)"></path>
                <polygon id="Shape" fill="#000000" points="109.63 31.81 109.63 31.81 109.62 31.81 109.62 31.81 109.62 31.8 109.62 31.8 109.62 31.8 109.63 31.8 109.62 31.79 109.61 31.8 109.61 31.81 109.62 31.81"></polygon>
                <polygon id="Shape" fill="#000000" points="109.65 31.81 109.65 31.81 109.65 31.8 109.65 31.8 109.65 31.8 109.65 31.8 109.65 31.8 109.65 31.8 109.65 31.79 109.64 31.79 109.64 31.81 109.65 31.81"></polygon>
                <polygon id="Shape" fill="#000000" points="109.68 31.79 109.67 31.79 109.67 31.8 109.67 31.8 109.67 31.81 109.67 31.81 109.67 31.8 109.68 31.8"></polygon>
                <polygon id="Shape" fill="#000000" points="109.69 31.81 109.68 31.81 109.68 31.8 109.69 31.8 109.69 31.8 109.68 31.8 109.68 31.8 109.69 31.8 109.69 31.79 109.68 31.79 109.68 31.81 109.69 31.81"></polygon>
                <polygon id="Shape" fill="#000000" points="109.74 31.79 109.74 31.79 109.73 31.8 109.73 31.8 109.73 31.8 109.73 31.79 109.73 31.79 109.73 31.8 109.73 31.81 109.74 31.81 109.74 31.8"></polygon>
                <polygon id="Shape" fill="#000000" points="109.77 31.81 109.76 31.81 109.76 31.79 109.75 31.79 109.75 31.81 109.77 31.81"></polygon>
                <polygon id="Shape" fill="#000000" points="109.87 31.81 109.87 31.79 109.86 31.79 109.86 31.8 109.85 31.79 109.84 31.79 109.84 31.81 109.85 31.81 109.85 31.8 109.84 31.8 109.85 31.81 109.86 31.81 109.86 31.8 109.86 31.8 109.86 31.81"></polygon>
                <polygon id="Shape" fill="#000000" points="109.93 31.79 109.91 31.79 109.91 31.79 109.92 31.79 109.92 31.81 109.92 31.81 109.92 31.79 109.93 31.79"></polygon>
                <polygon id="Shape" fill="#000000" points="109.95 31.81 109.94 31.81 109.94 31.8 109.95 31.8 109.95 31.8 109.94 31.8 109.94 31.79 109.95 31.79 109.95 31.79 109.93 31.79 109.93 31.81 109.95 31.81"></polygon>
                <path d="M36.6,11.81 L38.76,6.08 L39.59,6.08 L41.75,11.81 L40.93,11.81 L40.38,10.26 L38,10.26 L37.44,11.81 L36.6,11.81 Z M38.22,9.57 L40.12,9.57 L39.19,7 L39.19,7 L38.22,9.57 Z" id="Shape" fill="#FFFFFF"></path>
                <polygon id="Shape" fill="#FFFFFF" points="42.42 11.81 42.42 6.08 43.32 6.08 46.1 10.54 46.1 10.54 46.1 9.44 46.1 6.08 46.84 6.08 46.84 11.81 46.07 11.81 43.16 7.14 43.16 7.14 43.16 8.24 43.16 11.81"></polygon>
                <path d="M48,11.81 L48,6.08 L49.75,6.08 C50.5336366,6.04380708 51.2973414,6.33336341 51.86,6.88 C52.3967412,7.43203275 52.6824758,8.18072985 52.65,8.95 C52.6731149,9.71367572 52.3842702,10.4538404 51.85,11 C51.2866889,11.5456102 50.5234446,11.8349919 49.74,11.8 L48,11.8 L48,11.81 Z M48.74,11.11 L49.74,11.11 C50.3187652,11.1393528 50.8848721,10.9338236 51.31,10.54 C51.7156842,10.1135024 51.9257849,9.53753662 51.89,8.95 C51.9245698,8.3626408 51.7146402,7.78714424 51.31,7.36 C50.8854794,6.96518176 50.3189374,6.75949454 49.74,6.79 L48.74,6.79 L48.74,11.1 L48.74,11.11 Z" id="Shape" fill="#FFFFFF"></path>
                <path d="M53.52,11.81 L53.52,6.08 L55.52,6.08 C55.9861445,6.07175423 56.4374933,6.24369665 56.78,6.56 C57.4302415,7.15962469 57.4919951,8.1653257 56.92,8.84 C56.6646543,9.14421319 56.3108521,9.3494185 55.92,9.42 L55.92,9.42 L57.53,11.75 L57.53,11.75 L56.61,11.75 L55.07,9.49 L54.25,9.49 L54.25,11.81 L53.52,11.81 Z M54.26,8.81 L55.44,8.81 C55.7214471,8.81607853 55.9941443,8.712023 56.2,8.52 C56.4096586,8.33617196 56.5268842,8.0687509 56.52,7.79 C56.5189747,7.53253046 56.4186807,7.2853775 56.24,7.1 C56.0474159,6.89790728 55.7791236,6.78551458 55.5,6.79 L54.25,6.79 L54.25,8.79 L54.26,8.81 Z" id="Shape" fill="#FFFFFF"></path>
                <path d="M62.9,11.07 C61.7334695,12.2134286 59.8665305,12.2134286 58.7,11.07 C58.1452144,10.5057549 57.8422391,9.7411031 57.86,8.95 C57.8422391,8.1588969 58.1452144,7.39424506 58.7,6.83 C59.8665305,5.68657137 61.7334695,5.68657137 62.9,6.83 C63.4584459,7.39259005 63.76511,8.15744651 63.75,8.95 C63.76511,9.74255349 63.4584459,10.50741 62.9,11.07 L62.9,11.07 Z M59.24,10.59 C60.099008,11.4483072 61.490992,11.4483072 62.35,10.59 C62.7844298,10.15284 63.0195486,9.55599994 63,8.94 C63.0194268,8.32889845 62.7882129,7.7364129 62.36,7.3 C61.500992,6.44169277 60.109008,6.44169277 59.25,7.3 C58.8217871,7.7364129 58.5905732,8.32889845 58.61,8.94 C58.5878079,9.55453204 58.8192284,10.151163 59.25,10.59 L59.24,10.59 Z" id="Shape" fill="#FFFFFF"></path>
                <polygon id="Shape" fill="#FFFFFF" points="64.62 11.81 64.62 6.08 65.36 6.08 65.36 11.81"></polygon>
                <path d="M66.51,11.81 L66.51,6.08 L68.26,6.08 C69.0436366,6.04380708 69.8073414,6.33336341 70.37,6.88 C70.9067412,7.43203275 71.1924758,8.18072985 71.16,8.95 C71.1869379,9.7124218 70.9016121,10.4528243 70.37,11 C69.8066889,11.5456102 69.0434446,11.8349919 68.26,11.8 L66.51,11.8 L66.51,11.81 Z M67.25,11.11 L68.25,11.11 C68.8287652,11.1393528 69.3948721,10.9338236 69.82,10.54 C70.2256842,10.1135024 70.4357849,9.53753662 70.4,8.95 C70.4345698,8.3626408 70.2246402,7.78714424 69.82,7.36 C69.3954794,6.96518176 68.8289374,6.75949454 68.25,6.79 L67.25,6.79 L67.25,11.1 L67.25,11.11 Z" id="Shape" fill="#FFFFFF"></path>
                <path d="M73,11.81 L75.16,6.08 L76,6.08 L78.16,11.81 L77.33,11.81 L76.78,10.26 L74.37,10.26 L73.81,11.81 L73,11.81 Z M74.62,9.57 L76.52,9.57 L75.59,7 L75.59,7 L74.62,9.57 Z" id="Shape" fill="#FFFFFF"></path>
                <path d="M79.56,11.81 L78.82,11.81 L78.82,6.08 L80.82,6.08 C81.258503,6.0917253 81.6778267,6.26229764 82,6.56 C82.3405849,6.87425933 82.5343002,7.31658115 82.5343002,7.78 C82.5343002,8.24341885 82.3405849,8.68574067 82,9 C81.6574933,9.31630335 81.2061445,9.48824577 80.74,9.48 L79.56,9.48 L79.56,11.8 L79.56,11.81 Z M79.56,8.81 L80.79,8.81 C81.0691236,8.81448542 81.3374159,8.70209272 81.53,8.5 C81.8982542,8.11370171 81.8982542,7.50629829 81.53,7.12 C81.3374159,6.91790728 81.0691236,6.80551458 80.79,6.81 L79.56,6.81 L79.56,8.81 L79.56,8.81 Z" id="Shape" fill="#FFFFFF"></path>
                <path d="M84.07,11.81 L83.33,11.81 L83.33,6.08 L85.33,6.08 C85.7961445,6.07175423 86.2474933,6.24369665 86.59,6.56 C86.9305849,6.87425933 87.1243002,7.31658115 87.1243002,7.78 C87.1243002,8.24341885 86.9305849,8.68574067 86.59,9 C86.2474933,9.31630335 85.7961445,9.48824577 85.33,9.48 L84.07,9.48 L84.07,11.8 L84.07,11.81 Z M84.07,8.81 L85.3,8.81 C85.5696693,8.79582993 85.8221447,8.673199 86,8.47 C86.3619426,8.08504999 86.3619426,7.48495001 86,7.1 C85.8074159,6.89790728 85.5391236,6.78551458 85.26,6.79 L84.07,6.79 L84.07,8.79 L84.07,8.81 Z" id="Shape" fill="#FFFFFF"></path>
                <path d="M94.21,11.07 C93.0434695,12.2134286 91.1765305,12.2134286 90.01,11.07 C89.4552144,10.5057549 89.1522391,9.7411031 89.17,8.95 C89.1468572,8.15690607 89.4463479,7.38833347 90,6.82 C91.1665305,5.67657137 93.0334695,5.67657137 94.2,6.82 C94.7584459,7.38259005 95.06511,8.14744651 95.05,8.94 C95.0704873,9.73454349 94.767308,10.5033194 94.21,11.07 L94.21,11.07 Z M90.55,10.59 C91.409008,11.4483072 92.800992,11.4483072 93.66,10.59 C94.0882129,10.1535871 94.3194268,9.56110155 94.3,8.95 C94.3194268,8.33889845 94.0882129,7.7464129 93.66,7.31 C92.800992,6.45169277 91.409008,6.45169277 90.55,7.31 C90.1217871,7.7464129 89.8905732,8.33889845 89.91,8.95 C89.8905732,9.56110155 90.1217871,10.1535871 90.55,10.59 Z" id="Shape" fill="#FFFFFF"></path>
                <polygon id="Shape" fill="#FFFFFF" points="95.92 11.81 95.92 6.08 96.82 6.08 99.6 10.54 99.6 10.54 99.6 9.44 99.6 6.08 100.34 6.08 100.34 11.81 99.57 11.81 96.66 7.14 96.66 7.14 96.66 8.24 96.66 11.81"></polygon>
            </g>
        </g>
    </g>
</svg>