<?xml version="1.0" encoding="utf-8"?>
<!-- Generator: Adobe Illustrator 19.2.1, SVG Export Plug-In . SVG Version: 6.00 Build 0)  -->
<svg version="1.1" id="Layer_1" xmlns="http://www.w3.org/2000/svg" xmlns:xlink="http://www.w3.org/1999/xlink" x="0px" y="0px"
	 viewBox="0 0 300 161.3077393" style="enable-background:new 0 0 300 161.3077393;" xml:space="preserve">
<style type="text/css">
	.st0{fill:#BE2C2C;}
	.st1{fill:#FFFFFF;}
</style>
<g>
	<g>
		<path class="st0" d="M206.95401,69.065712v-7.5836678h-5.5111389
			c-0.8903046-28.644146-19.7526703-47.3262024-44.840744-51.8332939c-0.4423676-4.9579129-4.6196442-8.9413233-9.6905365-8.9413233
			c-5.0716095,0-9.2488861,3.9538686-9.6912537,8.9117813c-25.0880737,4.50805-43.9495544,23.218689-44.8398666,51.8628349
			h-3.8869934v7.5148811l6.9849472,3.6514816h38.2814636l-4.6878204,7.2824097h-16.2869797l-3.1549683,10.875473l3.741539,1.0905685
			l2.3084259-7.5965958h15.6104279L138.32164,72.648407h34.3932648l16.3180084,18.8726807l8.8476715-9.5579605l-2.8911591-2.5642395
			l-5.9012299,6.2173157l-11.164978-12.9677963h19.830246L206.95401,69.065712z M136.1036987,68.2789612H96.4435425
			l-5.0371017-1.6478348v-2.2361145h47.0410843L136.1036987,68.2789612z M165.9324341,19.8367062
			c13.8437653,7.6773205,23.2619476,21.6033802,25.1930542,37.2520905l-3.8850403,0.4796791
			c-1.778183-14.4114075-10.4530487-27.2367859-23.2056274-34.3092308L165.9324341,19.8367062z M140.665451,68.2789612
			l2.3434753-3.8839493h59.5756378v2.1673279l-5.6910706,1.7166214H140.665451z"/>
		<rect x="79.7545853" y="21.1860428" class="st0" width="10.1953735" height="4.3694458"/>
		<rect x="62.7622948" y="32.8378983" class="st0" width="27.187664" height="4.3694458"/>
		<rect x="52.5669212" y="44.004261" class="st0" width="37.3830376" height="4.3694458"/>
	</g>
	<g>
		<path d="M0.0363414,161.4938049v-39.8105087h27.187664v6.7969131H8.2897396v9.2243958h16.5067959v6.7969055H8.2897396v16.9922943
			H0.0363414z"/>
		<path d="M65.1027603,126.4918671c-3.5027809-3.619957-8.1808281-5.4298401-14.0158768-5.4298401
			c-3.2236938,0-6.0691185,0.5222855-8.5363655,1.5667725c-1.8549995,0.7744446-3.5613251,1.9630432-5.1191521,3.5658951
			c-1.5577354,1.6027603-2.7868843,3.4127274-3.6874428,5.4298325c-1.206501,2.7373962-1.8098869,6.1230927-1.8098869,10.1572113
			c0,6.3031921,2.3921509,11.2512817,5.8679047,14.8441162c2.9753952,3.0756378,7.8708344,4.8238525,12.2402802,5.2667542
			v-6.1990967c-4.3694458-1.1304932-6.7969131-4.6250458-6.7969131-8.7655029v-17.3696289
			c0-0.9550781,0.9869041-1.7292404,1.9419746-1.7292404s1.9419746,0.7741623,1.9419746,1.7292404V146.41539
			c0,0.9271393,0.6086464,1.8251038,1.5326576,1.8966217c0.9005547-0.0715179,1.3803062-0.9694824,1.3803062-1.8966217v-16.2805634
			c0-1.273468,0.9112701-2.305687,2.1847229-2.305687c1.2734566,0,2.1847229,1.0322189,2.1847229,2.305687V146.41539
			c0,0.9706421,0.2398682,2.1654205,1.2105103,2.1654205c1.08638,0,1.7024536-0.8889313,1.7024536-1.9753113v-17.0471191
			c0-0.9550781,1.2296562-1.7292404,2.1847229-1.7292404c0.9550705,0,2.1847229,0.7741623,2.1847229,1.7292404v17.3696289
			c0,4.1405487-2.9129639,7.6350861-7.2824097,8.7655945v6.2467957c5.8259277-0.3544617,8.300087-2.1290741,11.3923798-5.3415833
			c3.4758453-3.6108246,4.8786926-8.6128845,4.8786926-15.0062103
			C70.6827393,135.1453094,68.605545,130.1117249,65.1027603,126.4918671z"/>
		<path d="M108.1267776,126.4918671c-3.5027847-3.619957-8.1716995-5.4298401-14.006752-5.4298401
			c-3.2236023,0-6.0690231,0.5222855-8.5363617,1.5667725c-1.8549957,0.7744446-3.5613251,1.9630432-5.1191483,3.5658951
			c-1.5577393,1.6027603-2.7868881,3.4127274-3.687355,5.4298325c-1.2066803,2.7373962-1.8099747,6.1230927-1.8099747,10.1572113
			c0,6.3031921,2.848793,11.2512817,6.3245468,14.8441162c2.818306,2.9130859,7.5900116,4.6241608,11.9594574,5.1752777v-4.1174469
			c0-1.0471802-1.4336472-2.0570374-2.343071-2.5761871c-3.739357-2.1353455-7.2172394-7.1842346-7.2172394-13.0879364
			c0-7.837204,4.7092438-14.1904221,10.7963562-14.1904221s10.7671967,6.3532181,10.7671967,14.1904221
			c0,5.9037018-2.2841873,10.9526825-6.0392075,13.0879364c-0.9105835,0.517807-0.6236038,1.5272217-0.6236038,2.5747528v4.2359467
			c4.3694458-0.4111176,7.6251373-2.1817017,10.6455536-5.3193817c3.4757462-3.6108246,4.5065765-8.6128845,4.5065765-15.0062103
			C113.7437515,135.1453094,111.6295624,130.1117249,108.1267776,126.4918671z"/>
		<path d="M119.9533539,121.6832962h14.5124817c3.2957001,0,5.8079834,0.2791977,7.5368805,0.7834549
			c2.3231964,0.6843491,4.3132172,1.9135056,5.9700775,3.660408c1.6568451,1.7469025,2.9174957,3.8922653,3.7819366,6.4225693
			c0.8644562,2.530304,1.2966766,5.6537933,1.2966766,9.3637085c0,3.2596741-0.4052124,6.070816-1.2156219,8.4300232
			c-0.9905243,2.881485-2.4042511,5.2145386-4.2411957,6.9974518c-1.3867035,1.3506927-3.2596741,2.4816589-5.6188965,3.2380524
			c-1.7649078,0.5582733-4.124115,0.9148407-7.0776367,0.9148407h-14.9447021V121.6832962z M127.7212601,128.4802094v26.2166748
			h6.0962448c2.233139,0,3.8449707-0.1408081,4.8354797-0.3929443c1.2966766-0.324173,2.3727264-0.8808289,3.2281647-1.6552277
			s1.553299-2.0522461,2.0935822-3.8261566s0.8104095-4.1934967,0.8104095-7.2550812
			c0-3.0615692-0.2701263-5.4127045-0.8104095-7.0515442c-0.5402832-1.638855-1.2966766-2.9179688-2.269165-3.836441
			c-0.9725037-0.9184723-2.2061462-1.5183563-3.7009125-1.842514c-1.1165771-0.2521362-3.3047028-0.3567657-6.5643768-0.3567657
			H127.7212601z"/>
		<path class="st0" d="M158.2110596,141.7817383c0-4.0340729,0.6033173-7.4198151,1.8099365-10.1572266
			c0.9004669-2.0170288,2.1295929-3.8269653,3.6873932-5.4297943c1.5578003-1.6028214,3.2641754-2.7914352,5.1191406-3.565834
			c2.4672699-1.0445404,5.3127289-1.5668106,8.5363922-1.5668106c5.8350067,0,10.5039062,1.8099365,14.0067139,5.4298019
			c3.5005493,3.6198654,5.2564545,8.65345,5.2564545,15.1007767c0,6.3932953-1.7378998,11.3953705-5.2159271,15.0062256
			c-3.4757996,3.6108551-8.1221924,5.4162903-13.9391785,5.4162903c-5.8890381,0-10.5714569-1.7964325-14.0472412-5.3892822
			S158.2110596,148.0849915,158.2110596,141.7817383z M166.4503021,141.5116119
			c0,4.4842987,1.0355377,7.8835602,3.1065979,10.1977386c2.0710754,2.3141937,4.7004242,3.4712982,7.8880615,3.4712982
			s5.8034973-1.1481018,7.8475494-3.4442749c2.0440521-2.2961884,3.0660706-5.7404633,3.0660706-10.3328247
			c0-4.5383301-0.9950104-7.9240723-2.9850311-10.1572266s-4.6328888-3.3497314-7.9285889-3.3497314
			s-5.9520569,1.1300812-7.969101,3.3902435S166.4503021,136.9552612,166.4503021,141.5116119z"/>
		<path class="st0" d="M202.9728241,161.4938049v-39.8105087h11.7535858l7.1856995,27.0139084l7.10466-27.0139084h11.824585
			v39.8105087h-7.2824097v-31.3280487l-7.8378754,31.3280487H218.02211l-7.7668762-31.3280487v31.3280487H202.9728241z"/>
		<path class="st0" d="M248.6092682,161.4938049v-39.8105087h8.2534027v39.8105087H248.6092682z"/>
		<path class="st0" d="M300.0363464,161.4938049h-8.6984863l-3.4577637-9.2243805h-15.8301697l-3.2686768,9.2243805h-8.4823608
			l15.4249268-39.8105087h8.4553528L300.0363464,161.4938049z M285.3137512,145.4725037l-5.4567871-14.6955719
			l-5.3487549,14.6955719H285.3137512z"/>
	</g>
</g>
</svg>
